<?xml version="1.0" encoding="UTF-8" standalone="no" ?>
<!DOCTYPE svg PUBLIC "-//W3C//DTD SVG 1.1//EN" "http://www.w3.org/Graphics/SVG/1.1/DTD/svg11.dtd">
<svg xmlns="http://www.w3.org/2000/svg" xmlns:xlink="http://www.w3.org/1999/xlink" version="1.1" width="500" height="500" viewBox="0 0 500 500" xml:space="preserve">
<desc>Created with Fabric.js 3.6.3</desc>
<defs>
</defs>
<rect x="0" y="0" width="100%" height="100%" fill="#F2F2F2"></rect>
<g transform="matrix(0 -0.8461095585946362 -1.3544337561974513 0 168.55367742243206 250.19818830300588)"  >
<path style="stroke: none; stroke-width: 1; stroke-dasharray: none; stroke-linecap: butt; stroke-dashoffset: 0; stroke-linejoin: miter; stroke-miterlimit: 4; fill: rgb(0,0,0); fill-rule: nonzero; opacity: 1;"  transform=" translate(-49.95, -50)" d="M 91.7 49 H 8.3 c -0.6 0 -1 0.4 -1 1 s 0.4 1 1 1 h 83.3 c 0.6 0 1 -0.4 1 -1 S 92.2 49 91.7 49 z" stroke-linecap="round" />
</g>
<g transform="matrix(0.8322904971919699 -2.0385e-16 2.0385e-16 0.83229049719197 103.90023914531278 249.32881057388425)"  >
<g style=""   >
		<g transform="matrix(1 0 0 1 -28.25122294535613 -1.1598481126773095)"  >
<path style="stroke: none; stroke-width: 1; stroke-dasharray: none; stroke-linecap: butt; stroke-dashoffset: 0; stroke-linejoin: miter; stroke-miterlimit: 4; fill: rgb(59,59,59); fill-rule: nonzero; opacity: 1;"  transform=" translate(-21.248777054643874, -48.34015188732269)" d="M 35.6655731 24.5674229 c -0.5362358 -0.7641201 -1.311264 -1.3222313 -2.1146049 -1.7764168 c -0.5271149 -0.2979965 -1.1776199 -0.4386425 -1.7694111 -0.6429348 c -0.1081886 -0.2712326 -0.308712 -0.5128536 -0.5374279 -0.6524563 c -0.7747288 -0.4728432 -1.545105 -0.2223835 -2.0459938 0.4841824 c -0.137516 0.1940098 -0.2012978 0.3875427 -0.2117882 0.5757408 c -1.4999237 0.7436295 -2.8610783 2.545393 -3.8173733 3.5205688 c -2.1235447 2.1654491 -4.1419392 4.4321423 -6.1711235 6.6852303 C 14.9423428 37.2643242 10.81602 41.7815857 5.87533 45.3374901 c -0.548038 0.394413 -0.7855773 1.0469437 -0.4379416 1.6702499 c 4.6078377 8.2616005 8.195838 17.030262 10.7074919 26.1503105 c 0.1345348 0.4884567 0.6429348 0.9439392 1.1772022 0.8962555 c 2.2221375 -0.19841 4.428299 -0.1236267 6.6238499 0.2820969 c 0.2648392 0.0489349 0.5384407 0.0150909 0.7813454 -0.0825119 c 0.3118095 0.2562408 0.6121159 0.5266342 0.905508 0.8130569 c 0.9154053 0.893837 2.2731018 -0.0194321 2.0403919 -1.1877594 c -1.6050129 -8.0575027 -3.0581436 -16.1440926 -4.36273 -24.2555389 c 0.0057831 -0.0275993 0.0122795 -0.0544205 0.0166321 -0.0835686 c 0.0612164 -0.4125671 0.0609779 -0.7702446 -0.0403557 -1.099102 c 2.6796894 -4.4922447 5.5856514 -8.8417091 8.7160378 -13.0335121 c 1.6163979 -2.1645241 3.8509331 -4.277504 4.9157143 -6.7833157 C 37.6088028 26.9996033 37.0985527 25.1390495 35.6655731 24.5674229 z M 20.873127 49.7574997 c 1.0433826 6.5200729 2.184166 13.0238533 3.4216919 19.5096512 c -1.3569221 -4.1990433 -2.7137852 -8.3981056 -4.0707073 -12.5971489 c -0.8100166 -2.5064545 -1.619915 -5.0129356 -2.4298115 -7.5193863 C 18.8257618 49.3258171 19.8514996 49.528904 20.873127 49.7574997 z M 27.7649746 37.0914917 c -2.3628731 3.3097458 -4.5722523 6.7276115 -6.6510906 10.2223244 c -0.9371014 -0.2030258 -1.877779 -0.3850403 -2.8233452 -0.5431519 c 0.4863434 -0.4994278 0.9727478 -0.9988403 1.4590912 -1.4982681 c 1.0199566 -1.0473785 2.0399132 -2.094738 3.0598698 -3.1421165 c 1.6829796 -1.7281609 3.3699532 -3.4526863 5.0559731 -5.1781387 C 27.8321514 36.9987259 27.7982349 37.0448761 27.7649746 37.0914917 z M 33.2343292 27.9229946 c -4.1145191 4.5283794 -8.5621891 8.795393 -12.8312149 13.1790867 l -3.0599289 3.1421318 c -0.8483448 0.8711433 -2.2382908 1.8801498 -2.3568516 3.1912041 c -0.1182632 1.3080711 0.5475616 2.654995 0.9433002 3.8796158 c 0.4974308 1.539505 0.9949207 3.0789909 1.4924126 4.6184959 c 1.6957951 5.2478638 3.3916492 10.4957161 5.0874462 15.7435951 c -1.4220161 -0.1565399 -2.8479042 -0.2052612 -4.2826157 -0.1286926 c -2.4513903 -8.6206207 -5.8618765 -16.9488792 -10.1564732 -24.8151703 c 4.0388174 -3.0556679 7.5772829 -6.667347 10.9890804 -10.4057541 c 1.8591824 -2.037159 3.6860561 -4.1034775 5.5593052 -6.1278648 c 0.9354324 -1.0109119 1.887495 -2.006115 2.8560104 -2.9853897 c 0.2696686 -0.2727222 2.5101051 -2.6885853 2.6925659 -2.5881615 c 0.4768066 0.2624397 0.9356709 0.1823578 1.2754364 -0.0659409 c 0.6865082 0.263916 1.4010353 0.6044865 1.8701515 1.0430107 c 0.0462532 0.3488865 0.2313995 0.6975212 0.5222282 0.9289646 C 33.8783951 26.9365673 33.7119713 27.3973541 33.2343292 27.9229946 z" stroke-linecap="round" />
</g>
		<g transform="matrix(1 0 0 1 0.921701670407927 4.085730737325484)"  >
<path style="stroke: none; stroke-width: 1; stroke-dasharray: none; stroke-linecap: butt; stroke-dashoffset: 0; stroke-linejoin: miter; stroke-miterlimit: 4; fill: rgb(59,59,59); fill-rule: nonzero; opacity: 1;"  transform=" translate(-50.42170167040793, -53.585730737325484)" d="M 73.0252914 24.1311798 c -0.6276169 -0.4312363 -1.2552338 -0.8624725 -1.8829117 -1.2937088 c -0.0929871 -0.5477257 -0.5929794 -0.9884243 -1.2097473 -1.0443363 c -4.2216339 -0.3827305 -8.4041672 -1.0326843 -12.5454521 -1.9368515 c -1.2399712 -0.2707253 -1.9032326 1.2132664 -1.3014259 1.9705143 c -2.2785873 5.0727673 -5.022831 9.9094715 -7.7659454 14.741333 c -2.7845383 4.904789 -5.4719772 9.8573112 -7.9844055 14.907608 c -4.9976158 10.0457039 -9.3445492 20.4179764 -13.0539722 31.0061722 c -0.2210865 0.6311188 0.2454662 1.3307419 0.8526363 1.5017014 c 1.5013542 0.4227524 2.9986534 0.8669968 4.5078735 1.2606201 c 0.1834145 0.0478363 0.3654022 0.0793533 0.545475 0.0980148 c 0.0067978 0.19133 0.0699806 0.3941574 0.2056503 0.5993271 c 1.400795 2.1182251 4.0199814 1.6098175 5.6094933 0.0168839 c 0.9328728 -0.9349213 1.6224213 -2.1872025 2.3382568 -3.2854996 c 0.9165344 -1.4062958 1.7970085 -2.8363876 2.6824875 -4.2623596 c 3.5347137 -5.6926193 6.9777451 -11.4420624 10.339592 -17.2384148 c 6.72369 -11.5928841 13.0861549 -23.3946457 19.1003304 -35.3707504 C 73.7789764 25.172699 73.6002655 24.526247 73.0252914 24.1311798 z M 30.0339622 82.0084305 c 3.6057625 -10.1477661 7.815834 -20.0664368 12.6131096 -29.7093964 c 4.9545784 -9.9592285 11.1299934 -19.318428 15.6587296 -29.4832153 c 0.0386887 -0.0869236 0.0669403 -0.1731472 0.0862541 -0.2581482 c 3.1562576 0.6362133 6.3387413 1.1253586 9.5393486 1.4749603 C 61.97612 34.3121643 56.0208397 44.591671 50.0654984 54.8712044 c -3.1761665 5.4825287 -6.3523941 10.9650612 -9.5286217 16.4475899 l -4.64217 8.0129089 c -0.4072456 0.7029037 -0.8144302 1.4057922 -1.221611 2.1086731 c -0.2997131 0.5173416 -0.6168289 1.5799484 -1.3820801 1.4495239 C 32.2032852 82.7045364 31.1111431 82.3485107 30.0339622 82.0084305 z M 54.3528214 56.2929344 c -3.0122452 5.2784157 -6.1020393 10.5124702 -9.257164 15.7066917 c -1.5318718 2.521843 -3.0818672 5.0327835 -4.6485481 7.5331573 c -0.4161263 0.6640778 -3.8736458 6.7977829 -4.945816 5.1764984 c -0.0179443 -0.027153 -0.0371971 -0.0515594 -0.0562134 -0.0765533 c 0.1124802 -0.1017532 0.2198372 -0.213829 0.3208733 -0.3372498 c 0.9018707 -1.1013184 1.5252571 -2.5029907 2.2369766 -3.7314606 l 2.6875572 -4.6390762 c 3.339077 -5.7636795 6.678215 -11.5273666 10.0172882 -17.2910423 c 6.4757233 -11.1779022 12.9515038 -22.355793 19.427227 -33.5336838 c 0.2352142 0.1615982 0.4704285 0.323225 0.7056427 0.4848232 C 65.6084671 35.9604073 60.1122894 46.2005844 54.3528214 56.2929344 z" stroke-linecap="round" />
</g>
		<g transform="matrix(1 0 0 1 28.00966930602891 8.598987579659607)"  >
<path style="stroke: none; stroke-width: 1; stroke-dasharray: none; stroke-linecap: butt; stroke-dashoffset: 0; stroke-linejoin: miter; stroke-miterlimit: 4; fill: rgb(59,59,59); fill-rule: nonzero; opacity: 1;"  transform=" translate(-77.50966930602891, -58.09898757965961)" d="M 94.0749283 62.7201805 c -0.633812 -1.8909988 -1.2395477 -3.7884178 -1.7939072 -5.7043915 c -1.0656738 -3.6828194 -1.9334564 -7.4214973 -2.6422577 -11.188694 c -0.3403015 -1.8084679 -0.6285706 -3.6263885 -0.8853607 -5.4484482 c -0.2455826 -1.7428246 -0.2433167 -3.5931702 -1.0102386 -5.2050095 c -0.6251144 -1.3138542 -2.2631454 -1.9417381 -3.5037766 -2.4656181 c -1.7526016 -0.7400818 -3.5696411 -1.2486744 -5.4455719 -1.5586834 c -2.1939392 -0.3625526 -6.5610199 -0.907402 -6.6951981 2.4003811 c -0.0043488 0.1080093 0.0040512 0.2078667 0.021637 0.3010063 c -0.0783844 0.1643982 -0.1230927 0.3416595 -0.1137924 0.5148659 c 0.2324142 4.3325539 0.8097763 8.6361351 1.7229156 12.8776665 c 0.4766312 2.2136688 1.0693741 4.4011726 1.737999 6.5640907 c 0.6612396 2.1391449 1.5665665 4.1929321 2.2404404 6.3225594 c 0.2446289 0.7732201 -1.1569366 2.1225739 -1.5662079 2.6794624 c -0.6377487 0.8677025 -1.2831879 1.7297173 -1.9316635 2.5894279 c -1.4195709 1.8820114 -2.8715744 3.7391968 -4.344017 5.5801239 c -2.8826523 3.6041718 -5.8705177 7.1236343 -8.9407616 10.5691528 c -0.5859489 0.6575699 -0.4001503 1.8125381 0.538681 2.0403976 c 2.3294907 0.5653992 4.6590385 1.1307983 6.9885292 1.6961823 c 0.4060516 0.0985413 0.8984756 0.0139923 1.1877594 -0.313942 c 0.0500717 -0.0567474 0.1013336 -0.1123962 0.1514587 -0.1691132 c 2.3320541 1.0704193 4.8834076 -0.2484131 6.8041077 -1.9393692 c 2.9993668 -2.6406479 5.8748703 -5.4370041 8.8062897 -8.1530533 c 1.4311905 -1.3260269 2.8623886 -2.6520615 4.2935791 -3.9780884 c 1.3315887 -1.2337723 2.9937668 -2.4235687 4.0333328 -3.9271622 C 94.6319733 65.4978104 94.5630646 64.1766052 94.0749283 62.7201805 z M 71.8806915 72.3449478 c 1.4102097 -1.7631531 2.7929459 -3.5483017 4.1589279 -5.3459091 c 0.7445679 -0.9798813 1.4795914 -1.9670258 2.2102127 -2.9573746 c 0.5997772 -0.8130531 1.5289536 -1.7448654 1.7854462 -2.750843 c 0.5039902 -1.9766693 -0.8693848 -4.1506004 -1.506958 -5.9816017 c -0.79422 -2.281044 -1.4605179 -4.6052437 -2.037529 -6.9500694 c -1.064003 -4.324131 -1.7072983 -8.7380028 -1.9901962 -13.1796112 c 0.2269821 -0.1326714 0.4391327 -0.2948341 0.6438828 -0.4859848 c 0.2452316 0.150898 0.5591888 0.202549 0.9250031 0.0853157 c 2.3294907 -0.7466545 3.7989578 1.6152496 4.4109497 3.4964409 c 0.7901688 2.4289474 1.1737518 5.0288048 1.7781754 7.5102844 c 1.2360382 5.0743752 2.6758194 10.0982475 4.2819595 15.0675049 c 0.3553238 1.0994759 0.9620209 2.1350212 0.0468521 3.0848923 c -0.8331451 0.8646812 -1.7487259 1.6618614 -2.6135788 2.4953346 c -1.8978729 1.8289337 -3.7659378 3.6885605 -5.6126556 5.5690384 c -3.2965164 3.3568649 -6.4983749 6.8058167 -9.6243515 10.3218536 c -0.1254196 0.1000214 -0.2331848 0.2195358 -0.3154449 0.3518677 c -0.021698 0.0245285 -0.0438766 0.0486984 -0.0656281 0.0732422 c -1.4401398 -0.3495407 -2.8803329 -0.6990662 -4.3204727 -1.0486069 C 66.7195663 78.6406403 69.3379211 75.5241394 71.8806915 72.3449478 z M 91.3438034 65.8593445 c -2.1367798 2.2964706 -4.6513519 4.3281555 -6.952652 6.4603729 c -2.3852844 2.2100525 -4.7706299 4.4201202 -7.1559677 6.6301651 c -1.1715469 1.0855026 -3.6168518 4.0295486 -5.6798325 3.8822327 c 3.3003311 -3.6686249 6.6863708 -7.2585144 10.1670761 -10.7572784 c 2.0775909 -2.0883484 4.1923141 -4.1395569 6.3332062 -6.1628876 c 0.7399139 -0.6993103 1.4602814 -1.5545807 1.5012894 -2.6263695 c 0.0526962 -1.3788147 -0.539093 -2.6949348 -0.9530182 -3.9853935 c -1.8368835 -5.7267303 -3.4110184 -11.5365372 -4.7557831 -17.3978615 c -0.5755157 -2.5083771 -0.9097443 -5.3220482 -2.5602341 -7.4025116 c -0.092392 -0.1164322 -0.1891937 -0.2291069 -0.2890396 -0.3388443 c 0.2986984 0.0744209 0.5194244 0.1336403 0.6212921 0.1652641 c 1.2545166 0.3894501 2.7828751 0.8683434 3.7805405 1.7622871 c 0.8959122 0.8028221 0.7469482 3.0661316 0.892334 4.158886 c 0.8039322 6.0400734 2.0679321 12.0065918 3.7615204 17.8593483 c 0.3836365 1.3257484 0.7976761 2.6425095 1.226799 3.9541435 C 91.7368011 63.4529762 92.4787979 64.6395187 91.3438034 65.8593445 z" stroke-linecap="round" />
</g>
</g>
</g>
<g transform="matrix(1 0 0 1 331.4354604066409 250.8559266357641)" style=""  ><path fill="#000000" opacity="1" d="M-111.69-15.75C-111.69-16.65-112.37-17.32-113.27-17.32L-142.00-17.32C-142.89-17.32-143.57-16.65-143.57-15.75L-143.57-11.26C-143.57-10.36-142.89-9.69-142.00-9.69L-132.57-9.69L-132.57 12.53C-132.57 13.43-131.90 14.10-131.00 14.10L-124.26 14.10C-123.37 14.10-122.69 13.43-122.69 12.53L-122.69-9.69L-113.27-9.69C-112.37-9.69-111.69-10.36-111.69-11.26Z"/><path fill="#000000" opacity="1" d="M-77.13-15.75C-77.13-16.65-77.80-17.32-78.70-17.32L-106.08-17.32C-106.98-17.32-107.65-16.65-107.65-15.75L-107.65 12.53C-107.65 13.43-106.98 14.10-106.08 14.10L-78.70 14.10C-77.80 14.10-77.13 13.43-77.13 12.53L-77.13 8.04C-77.13 7.14-77.80 6.47-78.70 6.47L-97.78 6.47L-97.78 1.98L-83.64 1.98C-82.74 1.98-82.06 1.31-82.06 0.41L-82.06-4.08C-82.06-4.98-82.74-5.65-83.64-5.65L-97.78-5.65L-97.78-9.69L-78.70-9.69C-77.80-9.69-77.13-10.36-77.13-11.26Z"/><path fill="#000000" opacity="1" d="M-55.13-18.22C-67.03-18.22-73.53-11.71-73.53-1.61C-73.53 8.49-67.03 15.00-55.13 15.00C-44.35 15.00-38.52 9.16-38.52 3.78C-38.52 2.65-39.19 1.98-40.31 1.98L-45.93 1.98C-47.27 1.98-47.99 2.65-48.62 3.78C-49.74 5.80-51.54 7.59-55.13 7.59C-60.07 7.59-63.21 4.45-63.21-1.61C-63.21-7.67-60.07-10.81-55.13-10.81C-51.76-10.81-50.19-9.24-49.07-7.45C-48.39-6.32-47.72-5.65-46.37-5.65L-40.76-5.65C-39.64-5.65-38.97-6.32-38.97-7.45C-38.97-12.61-44.58-18.22-55.13-18.22Z"/><path fill="#000000" opacity="1" d="M-0.81-15.75C-0.81-16.65-1.48-17.32-2.38-17.32L-9.11-17.32C-10.01-17.32-10.68-16.65-10.68-15.75L-10.68-5.20L-23.70-5.20L-23.70-15.75C-23.70-16.65-24.38-17.32-25.27-17.32L-32.01-17.32C-32.91-17.32-33.58-16.65-33.58-15.75L-33.58 12.53C-33.58 13.43-32.91 14.10-32.01 14.10L-25.27 14.10C-24.38 14.10-23.70 13.43-23.70 12.53L-23.70 2.43L-10.68 2.43L-10.68 12.53C-10.68 13.43-10.01 14.10-9.11 14.10L-2.38 14.10C-1.48 14.10-0.81 13.43-0.81 12.53Z"/><path fill="#000000" opacity="1" d="M15.13-8.12C15.13-9.47 16.48-10.81 20.52-10.81C23.88-10.81 25.27-9.47 25.68-8.79C26.31-7.67 27.03-7.00 28.37-7.00L33.98-7.00C35.11-7.00 35.78-7.67 35.78-8.79C35.78-13.28 30.84-18.22 20.52-18.22C9.52-18.22 4.80-13.51 4.80-8.12C4.80 4.45 26.58 0.19 26.58 4.68C26.58 6.02 25.01 7.59 20.52 7.59C16.03 7.59 14.68 6.25 14.01 5.12C13.38 4.05 12.66 3.33 11.31 3.33L5.70 3.33C4.58 3.33 3.91 4.00 3.91 5.12C3.91 10.06 8.84 15.00 20.52 15.00C31.96 15.00 36.90 10.06 36.90 4.68C36.90-7.89 15.13-3.63 15.13-8.12Z"/><path fill="#000000" opacity="1" d="M69.45-7.45C69.45-13.06 64.29-18.22 54.86-18.22C44.98-18.22 40.04-13.28 40.04-8.34C40.04-7.22 40.72-6.55 41.84-6.55L47.45-6.55C48.80-6.55 49.47-7.27 50.15-8.34C50.82-9.47 52.17-10.81 54.86-10.81C57.55-10.81 59.12-9.24 59.12-7.45C59.12-2.06 39.82-2.06 39.82 8.72L39.82 12.53C39.82 13.43 40.49 14.10 41.39 14.10L67.61 14.10C68.51 14.10 69.18 13.43 69.18 12.53L69.18 8.04C69.18 7.14 68.51 6.47 67.61 6.47L51.72 6.47L51.72 6.02C56.21 3.33 69.45 2.43 69.45-7.45Z"/><path fill="#000000" opacity="1" d="M102.45-7.45C102.45-13.06 97.28-18.22 87.86-18.22C77.98-18.22 73.04-13.28 73.04-8.34C73.04-7.22 73.71-6.55 74.84-6.55L80.45-6.55C81.79-6.55 82.47-7.27 83.14-8.34C83.81-9.47 85.16-10.81 87.86-10.81C90.55-10.81 92.12-9.24 92.12-7.45C92.12-2.06 72.82-2.06 72.82 8.72L72.82 12.53C72.82 13.43 73.49 14.10 74.39 14.10L100.60 14.10C101.50 14.10 102.18 13.43 102.18 12.53L102.18 8.04C102.18 7.14 101.50 6.47 100.60 6.47L84.71 6.47L84.71 6.02C89.20 3.33 102.45 2.43 102.45-7.45Z"/></g></svg>